<svg width="22" height="32" viewBox="0 0 22 32" fill="none" xmlns="http://www.w3.org/2000/svg">
<path d="M16 2V0H14V2V4H16V2Z" fill="#838383"/>
<path d="M4 0V2V4H6V2V0H4Z" fill="#838383"/>
<path d="M4 4H2V6H4V4Z" fill="#838383"/>
<path d="M16 4V6H18V4H16Z" fill="#838383"/>
<path d="M12 6V8H14V6H12Z" fill="white"/>
<path d="M12 8H10V10H12V8Z" fill="white"/>
<path d="M8 8H10V6H8V8Z" fill="white"/>
<path d="M10 4V6H12V4H10Z" fill="white"/>
<path d="M8 8H6V10H8V8Z" fill="white"/>
<path d="M8 4H6V6H8V4Z" fill="white"/>
<path d="M6 2V4H8V2H6Z" fill="#0092AA"/>
<path d="M12 2V4H14V2H12Z" fill="#0092AA"/>
<path d="M4 8H6V6H4V8Z" fill="white"/>
<path d="M2 6V4H0V6H2Z" fill="#0000AA"/>
<path d="M0 28H2V26H0V28Z" fill="#838383"/>
<path d="M2 6H0V10V12V14V26H2V12H4V10H2V8V6Z" fill="#0000AA"/>
<path d="M2 28V30H6V28H4H2Z" fill="#838383"/>
<path d="M6 30V32H14V30H6Z" fill="#838383"/>
<path d="M22 6H20V26H22V6Z" fill="#838383"/>
<path d="M18 30V28H16V26H14V28V30H16H18Z" fill="#838383"/>
<path d="M20 28V26H18V28H20Z" fill="#838383"/>
<path d="M14 20V18H16V20H14Z" fill="#838383"/>
<path d="M14 24V22H16V24H14Z" fill="#838383"/>
<path d="M14 14V16H16V14H14Z" fill="#838383"/>
<path d="M4 12H2V26H4V24V22V20V18V16V14V12Z" fill="#0092AA"/>
<path d="M4 10V12H6V10H4Z" fill="#0092AA"/>
<path d="M2 10H4V8H2V10Z" fill="#0092AA"/>
<path d="M4 6H2V8H4V6Z" fill="#00FFFF"/>
<path d="M6 10V8H4V10H6Z" fill="#00FFFF"/>
<path d="M16 4H14H12V6H14V8H12V10H10V8H8V10H6V12H14V10H16V8H18V6H16V4Z" fill="#00FFFF"/>
<path d="M12 6H10V8H12V6Z" fill="#00FFFF"/>
<path d="M8 8V6H6V8H8Z" fill="#00FFFF"/>
<path fill-rule="evenodd" clip-rule="evenodd" d="M16 4H18V2H16V4ZM2 4H4V2H2V4Z" fill="#0000AA"/>
<path d="M6 4H4V6H6V4Z" fill="#00FFFF"/>
<path fill-rule="evenodd" clip-rule="evenodd" d="M6 0H14V2H12H8H6V0Z" fill="#0000AA"/>
<path d="M8 2V4V6H10V4H12V2H8Z" fill="#00FFFF"/>
<path d="M6 14V12H4V14H6Z" fill="#C1C1C1"/>
<path d="M14 14H16V10H14V12V14Z" fill="#0092AA"/>
<path d="M16 8V10H18V8H16Z" fill="#0092AA"/>
<path d="M14 24V22V20V18V16V14H10V16H12V18H10V20H12V22H10V24H12V26H10V28H14V26V24Z" fill="#0092AA"/>
<path d="M6 18V16H4V18H6Z" fill="#C1C1C1"/>
<path d="M6 22V20H4V22H6Z" fill="#C1C1C1"/>
<path d="M4 26H6V24H4V26Z" fill="#C1C1C1"/>
<path d="M6 16H8V14H6V16Z" fill="white"/>
<path d="M8 20V18H6V20H8Z" fill="white"/>
<path d="M8 24V22H6V24H8Z" fill="white"/>
<path d="M6 26V28H8V26H6Z" fill="white"/>
<path d="M8 18H10V16H8V18Z" fill="white"/>
<path d="M8 22H10V20H8V22Z" fill="white"/>
<path d="M8 26H10V24H8V26Z" fill="white"/>
<path d="M10 24V22H8V24H10Z" fill="#00FFFF"/>
<path d="M8 22V20H6V22H8Z" fill="#00FFFF"/>
<path d="M6 26H8V24H6V26Z" fill="#00FFFF"/>
<path d="M6 24V22H4V24H6Z" fill="#00FFFF"/>
<path d="M6 20V18H4V20H6Z" fill="#00FFFF"/>
<path d="M8 18V16H6V18H8Z" fill="#00FFFF"/>
<path d="M10 28V26H8V28H10Z" fill="#00FFFF"/>
<path d="M12 24H10V26H12V24Z" fill="#00FFFF"/>
<path d="M12 20H10V22H12V20Z" fill="#00FFFF"/>
<path d="M10 20V18H8V20H10Z" fill="#00FFFF"/>
<path d="M12 16H10V18H12V16Z" fill="#00FFFF"/>
<path d="M10 16V14H8V16H10Z" fill="#00FFFF"/>
<path fill-rule="evenodd" clip-rule="evenodd" d="M18 4H20V6V26H18V28H16V26H14V24H16V22H14V20H16V18H14V16H16V14V10H18V8V6V4ZM14 14V12H6V14H8H10H14ZM6 26H4H2V28H4H6V30H14V28H10H8H6V26Z" fill="#0000AA"/>
<path d="M6 14H4V16H6V14Z" fill="#00FFFF"/>
</svg>
