<svg width="28" height="32" viewBox="0 0 28 32" fill="none" xmlns="http://www.w3.org/2000/svg">
<path d="M2 4H0V20H2V18V16V14V12V10V8V6V4Z" fill="black"/>
<path d="M6 2V0H4V2H6Z" fill="black"/>
<path d="M2 2V4H4V2H2Z" fill="black"/>
<path d="M6 4H4V6H6V4Z" fill="black"/>
<path d="M10 4V2H6V4H8H10Z" fill="black"/>
<path d="M14 6V4H10V6H12H14Z" fill="black"/>
<path d="M10 8V6H8V8H10Z" fill="black"/>
<path d="M18 6H14V8H16H18V6Z" fill="black"/>
<path d="M14 8H12V10H14V8Z" fill="black"/>
<path d="M14 10V12H16V10H14Z" fill="black"/>
<path d="M22 6V4H18V6H20H22Z" fill="black"/>
<path d="M24 6H22V8H24V6Z" fill="black"/>
<path d="M26 10V8H24V10H26Z" fill="black"/>
<path d="M20 14H22V12H20V14Z" fill="black"/>
<path d="M26 30H28V10H26V12V14V16V18V20V22V24V26V28V30Z" fill="black"/>
<path d="M2 0V2H4V0H2Z" fill="#838383"/>
<path d="M6 4V6H8V4H6Z" fill="#838383"/>
<path d="M10 6V8H12V6H10Z" fill="#838383"/>
<path d="M14 10H16V8H14V10Z" fill="#838383"/>
<path d="M16 10V12H18V10H16Z" fill="#838383"/>
<path d="M20 14V12H18V14H20Z" fill="#838383"/>
<path d="M22 12V14H24V12H22Z" fill="#838383"/>
<path d="M28 8H26V10H28V8Z" fill="#838383"/>
<path d="M26 8V6H24V8H26Z" fill="#838383"/>
<path d="M24 30H26V28H24V30Z" fill="#CCCCCC"/>
<path d="M26 24H24V26H26V24Z" fill="#CCCCCC"/>
<path d="M26 20H24V22H26V20Z" fill="#CCCCCC"/>
<path d="M26 16H24V18H26V16Z" fill="#CCCCCC"/>
<path d="M24 12V14H26V12H24Z" fill="#CCCCCC"/>
<path d="M22 12H24V10H22V12Z" fill="#CCCCCC"/>
<path d="M20 8V10H22V8H20Z" fill="#CCCCCC"/>
<path d="M18 6V8H20V6H18Z" fill="#CCCCCC"/>
<path d="M18 8H16V10H18V8Z" fill="#CCCCCC"/>
<path d="M18 10V12H20V10H18Z" fill="#CCCCCC"/>
<path d="M18 12H16V14H18V12Z" fill="#CCCCCC"/>
<path d="M20 28H22V26H20V28Z" fill="#CCCCCC"/>
<path d="M6 2H4V4H6V2Z" fill="#FFFF00"/>
<path d="M4 4H2V6H4V4Z" fill="#FFFF00"/>
<path d="M6 6H4V8H6V6Z" fill="#FFFF00"/>
<path d="M2 10H4V8H2V10Z" fill="#FFFF00"/>
<path d="M4 12H2V14H4V12Z" fill="#FFFF00"/>
<path d="M2 18H4V16H2V18Z" fill="#FFFF00"/>
<path d="M4 12H6V10H4V12Z" fill="#FFFF00"/>
<path d="M8 12H10V10H8V12Z" fill="#FFFF00"/>
<path d="M10 6V4H8V6H10Z" fill="#FFFF00"/>
<path d="M14 8V6H12V8H14Z" fill="#FFFF00"/>
<path d="M12 10V8H10V10H12Z" fill="#FFFF00"/>
<path d="M14 10H12V12H14V10Z" fill="#FFFF00"/>
<path d="M16 12H14V14H16V12Z" fill="#FFFF00"/>
<path d="M18 14H16V16H18V14Z" fill="#FFFF00"/>
<path d="M20 20H22V18H20V20Z" fill="#FFFF00"/>
<path d="M22 14H20V16H22V14Z" fill="#FFFF00"/>
<path d="M20 22V24H22V22H20Z" fill="#FFFF00"/>
<path d="M26 26H24V28H26V26Z" fill="#FFFF00"/>
<path d="M26 22H24V24H26V22Z" fill="#FFFF00"/>
<path d="M26 18H24V20H26V18Z" fill="#FFFF00"/>
<path d="M26 14H24V16H26V14Z" fill="#FFFF00"/>
<path d="M26 10H24V12H26V10Z" fill="#FFFF00"/>
<path d="M20 12H22V10H20V12Z" fill="#FFFF00"/>
<path d="M24 10V8H22V10H24Z" fill="#FFFF00"/>
<path d="M22 8V6H20V8H22Z" fill="#FFFF00"/>
<path d="M18 10H20V8H18V10Z" fill="#FFFF00"/>
<path d="M22 30V32H26V30H24V28V26V24V22V20V18V16V14H22V16V18V20V22V24V26V28H20V30H22Z" fill="black"/>
<path d="M20 30V28H18V30H20Z" fill="#838383"/>
<path d="M20 18H22V16H20V18Z" fill="white"/>
<path d="M22 22V20H20V22H22Z" fill="white"/>
<path d="M20 14H18V16H20V14Z" fill="white"/>
<path d="M14 16H16V14H14V16Z" fill="white"/>
<path d="M12 12V14H14V12H12Z" fill="white"/>
<path d="M10 12H12V10H10V12Z" fill="white"/>
<path d="M10 8H8V10H10V8Z" fill="white"/>
<path d="M6 12H8V10H6V12Z" fill="white"/>
<path d="M8 8V6H6V8H8Z" fill="white"/>
<path d="M4 10H6V8H4V10Z" fill="white"/>
<path d="M8 10V8H6V10H8Z" fill="#FFFF00"/>
<path d="M4 8V6H2V8H4Z" fill="white"/>
<path d="M4 12V10H2V12H4Z" fill="white"/>
<path fill-rule="evenodd" clip-rule="evenodd" d="M20 24H22V26H20V24Z" fill="#FFFF00"/>
<path d="M4 14H2V16H4V14Z" fill="white"/>
<path fill-rule="evenodd" clip-rule="evenodd" d="M16 16H14H12H10H8H6V18H4V20V22V28H6V30H18V28H20V26V24V22V20V18H18V16H16ZM16 22V20H14V22H16ZM16 24H14V26H16V24ZM12 24V26H10H8V24V22V20H10H12V22H10V24H12Z" fill="#0000AA"/>
<path d="M16 20V22H14V20H16Z" fill="white"/>
<path d="M14 24H16V26H14V24Z" fill="white"/>
<path d="M12 26V24H10V26H12Z" fill="white"/>
<path d="M10 24V22H8V24H10Z" fill="white"/>
<path d="M12 22V20H10V22H12Z" fill="white"/>
<path d="M10 20H8V22H10V20Z" fill="#838383"/>
<path d="M8 24V26H10V24H8Z" fill="#838383"/>
<path d="M4 30H6V28H4V30Z" fill="#838383"/>
<path d="M20 18V16H18V18H20Z" fill="#838383"/>
<path d="M4 16V18H6V16H4Z" fill="#838383"/>
<path d="M12 14H10V16H12V14Z" fill="white"/>
<path d="M6 16H8V14H6V16Z" fill="white"/>
<path d="M10 16V14H8V16H10Z" fill="#FFFF00"/>
<path d="M14 16V14H12V16H14Z" fill="#FFFF00"/>
<path d="M12 14V12H10V14H12Z" fill="#FFFF00"/>
<path d="M8 12H6V14H8V12Z" fill="#FFFF00"/>
<path d="M4 14V16H6V14H4Z" fill="#FFFF00"/>
<path d="M6 12H4V14H6V12Z" fill="white"/>
<path d="M10 12H8V14H10V12Z" fill="white"/>
<path d="M2 20V22H4V20H2Z" fill="black" fill-opacity="0.733333"/>
<path d="M2 18V20H4V18H2Z" fill="#CCCCCC"/>
</svg>
