<svg width="30" height="32" viewBox="0 0 30 32" fill="none" xmlns="http://www.w3.org/2000/svg">
<path d="M22 24H14V26H22V24Z" fill="#838383"/>
<path d="M14 28H22V26H14V28Z" fill="#C1C1C1"/>
<path d="M4 28H8V26H4V28Z" fill="#C1C1C1"/>
<path fill-rule="evenodd" clip-rule="evenodd" d="M2 28V24H4V26V28H2ZM8 26V28H14V26V24H8V26ZM22 28H24V24H22V26V28Z" fill="white"/>
<path d="M8 24H4V26H8V24Z" fill="#00FF00"/>
<path d="M26 18V20H28V18H26Z" fill="black"/>
<path d="M28 18H30V16H28V18Z" fill="black"/>
<path d="M28 16H30V14H28V16Z" fill="#800000"/>
<path d="M26 14H28V12H26V14Z" fill="#800000"/>
<path d="M24 12H26V10H24V12Z" fill="#800000"/>
<path d="M24 10V8H22V10H24Z" fill="#800000"/>
<path d="M18 4V2H16V4H18Z" fill="#800000"/>
<path d="M14 2H16V0H14V2Z" fill="#800000"/>
<path d="M14 16V18H16V16H14Z" fill="black"/>
<path d="M12 18V20H14V18H12Z" fill="black"/>
<path d="M10 20V22H12V20H10Z" fill="black"/>
<path fill-rule="evenodd" clip-rule="evenodd" d="M20 20V22H12V20H14H20ZM4 20H8V22H4V20Z" fill="#838383"/>
<path d="M8 20V22H10V20H8Z" fill="#FF0000"/>
<path d="M8 20H10H12V18H10H8V20Z" fill="#FF0000"/>
<path d="M16 14V16H18V14H16Z" fill="black"/>
<path d="M18 12V14H20V12H18Z" fill="black"/>
<path d="M16 16V18H24V16H22H18H16Z" fill="#C1C1C1"/>
<path d="M2 4V18H8H10V16H4V6H12V4H10H2Z" fill="white"/>
<path d="M26 18H28V16V14H26V18Z" fill="#FF0000"/>
<path d="M20 8H22V6H20V8Z" fill="#FF0000"/>
<path d="M24 8H26V6H24V8Z" fill="black"/>
<path d="M26 4V6H28V4H26Z" fill="black"/>
<path d="M28 2V4H30V2H28Z" fill="black"/>
<path d="M22 8H24V6H22V8Z" fill="#FF0000"/>
<path d="M22 4V6H24V4H22Z" fill="#FF0000"/>
<path d="M26 4H24V6H26V4Z" fill="#FF0000"/>
<path d="M26 4V2H24V4H26Z" fill="#FF0000"/>
<path fill-rule="evenodd" clip-rule="evenodd" d="M28 20V32H2V30H26.0595L26 22H22V20H26H28ZM26 8V6H28V12H26V10V8Z" fill="#838383"/>
<path d="M28 2H26V4H28V2Z" fill="#FF0000"/>
<path d="M20 6H22V4H20V6Z" fill="white"/>
<path fill-rule="evenodd" clip-rule="evenodd" d="M26 14V12H24V10H22V8H20V6H18V4H16H12V6H14V8H16V12H14V14H12V16H10V18H12H14V16H16V14H18V12H20V14H22V16H24V18H26V14Z" fill="#FF0000"/>
<path d="M20 4H18V6H20V4Z" fill="#800000"/>
<path fill-rule="evenodd" clip-rule="evenodd" d="M0 2H10V4H2V18H8V20H4V22H8H10H12H20V20H14V18H16H24H26V20H22V22H26L26.0595 30H2H0V22H2V20H0V2ZM20 4H18V2H24V4H22H20ZM2 24V28H4H8H14H22H24V24H22H14H8H4H2Z" fill="#0000AA"/>
<path d="M16 4V2H14H10V4H12H16Z" fill="#FF0000"/>
<path d="M14 2V0H10V2H14Z" fill="#FF0000"/>
<path d="M12 14H14V12H16V8H14H10V10H8V12H6V14H12Z" fill="#0092AA"/>
<path d="M6 8V12H8V10H10V8H6Z" fill="#00FFFF"/>
<path d="M10 16H12V14H6V12V8H10H14V6H12H4V16H10Z" fill="#0000FF"/>
<path d="M22 14H20H18V16H22V14Z" fill="#0000FF"/>
<path d="M24 10H26V8H24V10Z" fill="#0000AA"/>
</svg>
