<svg width="32" height="30" viewBox="0 0 32 30" fill="none" xmlns="http://www.w3.org/2000/svg">
<path d="M30 12H26V14H22V16H18V22H20V20H24V18H28V16H30V12Z" fill="#838383"/>
<path d="M30 18H28V20H24V22H20V24H18V28H20V26H24V24H28V22H30V18Z" fill="#838383"/>
<path d="M28 26H30V24H28V26Z" fill="#838383"/>
<path d="M26 28V26H24V28H26Z" fill="#838383"/>
<path d="M22 30V28H20V30H22Z" fill="#838383"/>
<path d="M14 28V30H16V28H14Z" fill="#838383"/>
<path d="M20 28H18H16V30H20V28Z" fill="black"/>
<path d="M24 26H20V28H22H24V26Z" fill="black"/>
<path d="M28 24H24V26H26H28V24Z" fill="black"/>
<path d="M30 22H28V24H30V22Z" fill="black"/>
<path d="M30 22H32V10H30V12V16H28V18H30V22Z" fill="black"/>
<path d="M30 8H28V10H30V8Z" fill="black"/>
<path d="M28 6H24V8H28V6Z" fill="black"/>
<path d="M24 4H20V6H22H24V4Z" fill="black"/>
<path d="M20 2H16V4H18H20V2Z" fill="black"/>
<path d="M12 0V2H14H16V0H12Z" fill="black"/>
<path d="M12 4V2H10V4H12Z" fill="#838383"/>
<path d="M8 2V4H10V2H8Z" fill="black"/>
<path d="M4 4V6H6V4H4Z" fill="black"/>
<path d="M8 4H6V6H8V4Z" fill="#838383"/>
<path d="M4 6H0V8H2H4V6Z" fill="#838383"/>
<path d="M24 18V20H28V18H24Z" fill="black"/>
<path d="M20 20V22H24V20H20Z" fill="black"/>
<path d="M10 26V28H12V26H10Z" fill="#838383"/>
<path d="M14 28H16V26H14H12V28H14Z" fill="black"/>
<path d="M20 22H18H16V24H18H20V22Z" fill="black"/>
<path d="M14 22H16V20H14V22Z" fill="black"/>
<path d="M16 24V22H14V24V26H16V24Z" fill="#838383"/>
<path d="M18 22V16H16V18H12V20H14H16V22H18Z" fill="#CCCCCC"/>
<path d="M18 28V24H16V26V28H18Z" fill="#CCCCCC"/>
<path d="M16 18V16H14V14H12V16V18H16Z" fill="#838383"/>
<path d="M12 14H14V12H10V14H12Z" fill="white"/>
<path d="M10 12V10H6V12H8H10Z" fill="white"/>
<path d="M4 6V8H2V10H6V6H4Z" fill="white"/>
<path d="M8 4V6H10V4H8Z" fill="white"/>
<path d="M12 2V4H14V2H12Z" fill="white"/>
<path d="M8 12H6V14H8V12Z" fill="black"/>
<path d="M12 14H10V16H12V14Z" fill="black"/>
<path d="M10 14V12H8V14V16H10V14Z" fill="#838383"/>
<path d="M0 20H2V16V14V10V8H0V20Z" fill="black"/>
<path d="M10 26H12V24H10H8V26H10Z" fill="black"/>
<path d="M4 24H6H8V22H6H4V24Z" fill="black"/>
<path d="M2 20V22H4V20H2Z" fill="black"/>
<path d="M2 24H4V22H2V24Z" fill="#838383"/>
<path d="M6 24V26H8V24H6Z" fill="#838383"/>
<path d="M2 16H4V14H2V16Z" fill="black"/>
<path d="M6 12V10H2V14H4V16H6H8V14H6V12Z" fill="#CCCCCC"/>
<path d="M2 20H4V16H2V20Z" fill="#CCCCCC"/>
<path d="M4 16V20H6V18V16H4Z" fill="#838383"/>
<path d="M14 22V20H12V22H14Z" fill="#838383"/>
<path d="M12 20V18H10V20H12Z" fill="black"/>
<path d="M8 18V20H10V18H8Z" fill="#838383"/>
<path d="M8 16H6V18H8V16Z" fill="black"/>
<path d="M10 16H8V18H10H12V16H10Z" fill="#CCCCCC"/>
<path d="M8 20H6V22H8V20Z" fill="#CCCCCC"/>
<path d="M12 24V22H10V24H12Z" fill="#CCCCCC"/>
<path d="M12 26H14V24H12V26Z" fill="#CCCCCC"/>
<path d="M4 20V22H6V20H4Z" fill="#FF0000"/>
<path fill-rule="evenodd" clip-rule="evenodd" d="M14 22V24H12V22H14ZM8 22H10H12V20H10H8V18H6V20H8V22Z" fill="white"/>
<path d="M8 22V24H10V22H8Z" fill="#00FF00"/>
<path d="M32 8H30V10H32V8Z" fill="#838383"/>
<path fill-rule="evenodd" clip-rule="evenodd" d="M16 16H18V14H14V16H16Z" fill="white"/>
<path d="M20 6V4H18V6H20Z" fill="white"/>
<path fill-rule="evenodd" clip-rule="evenodd" d="M8 6H6V10H10V12H14V14H18V16H22V14H26V12H30V10H28V8H24H22V6H20H18V4H16V2H14V4H12H10V6H8Z" fill="#CCCCCC"/>
<path d="M24 8V6H22V8H24Z" fill="white"/>
</svg>
