<svg width="32" height="32" viewBox="0 0 32 32" fill="none" xmlns="http://www.w3.org/2000/svg">
<path d="M30 2V0H4V10H6V2H28V14H22V16H24H30V2Z" fill="#0092AA"/>
<path d="M16 10V20H18H20V18H18V10H16Z" fill="#0092AA"/>
<path d="M20 16V18H22V16H20Z" fill="#0092AA"/>
<path fill-rule="evenodd" clip-rule="evenodd" d="M16 20V10H8V12H4V16H2V24H4V28H16V26H12H10V24H12V18H10V16H14V18V24H16V26H18V20H16ZM10 14V12H12H14V14H12H10Z" fill="#0000FF"/>
<path d="M2 16H0V24H2V16Z" fill="#0000AA"/>
<path d="M4 12H2V16H4V12Z" fill="#0000AA"/>
<path d="M4 10V12H8V10H6H4Z" fill="#0000AA"/>
<path d="M8 8V10H16V8H8Z" fill="#0000AA"/>
<path d="M4 28V30H8V32H16V30H18V28H22V24H24V18V16H22V18H20V20H18V26H16V28H4Z" fill="#0000AA"/>
<path d="M2 24V28H4V24H2Z" fill="#0000AA"/>
<path d="M12 18V24V26H16V24H14V18H12Z" fill="white"/>
<path d="M10 24V26H12V24H10Z" fill="#CCCCCC"/>
<path d="M10 18H12H14V16H10V18Z" fill="#CCCCCC"/>
<path d="M10 12V14H12V12H10Z" fill="#CCCCCC"/>
<path d="M14 14V12H12V14H14Z" fill="white"/>
<path d="M32 18V2H30V16H24V18H32Z" fill="#838383"/>
<path d="M14 6V4H8V6H14Z" fill="black"/>
<path d="M16 6V4H26V6H16Z" fill="black"/>
<path d="M18 10H26V8H18V10Z" fill="black"/>
<path fill-rule="evenodd" clip-rule="evenodd" d="M22 16V14H28V2H6V10H8V8H16V10H18V8H26V10H18V18H20V16H22ZM16 4V6H26V4H16ZM14 4V6H8V4H14Z" fill="#FFFF00"/>
</svg>
