<svg width="24" height="32" viewBox="0 0 24 32" fill="none" xmlns="http://www.w3.org/2000/svg">
<path fill-rule="evenodd" clip-rule="evenodd" d="M0 30H2H22V16V14H20H18H16H14H12H8H6H4H2H0V30ZM2 28V16H4H6H8H10H12H16H20V28H18H16H14H10H8H6H2Z" fill="#0000AA"/>
<path d="M6 6V14H8V6H6Z" fill="#0000AA"/>
<path d="M2 4V14H4V4H2Z" fill="#0000AA"/>
<path d="M8 4V6H14V4H8Z" fill="#0000AA"/>
<path d="M6 2H14H16V0H6V2Z" fill="#0000AA"/>
<path d="M16 4H18V2H16V4Z" fill="#0000AA"/>
<path d="M20 14V6V4H18V8V14H20Z" fill="#0000AA"/>
<path d="M16 6H14V8V14H16V8V6Z" fill="#0000AA"/>
<path d="M4 2V4H6V2H4Z" fill="#0000AA"/>
<path d="M4 4V14H6V6V4H4Z" fill="#FFFF00"/>
<path d="M6 2V4H8H14V2H6Z" fill="#FFFF00"/>
<path d="M16 14H18V8H16V14Z" fill="#FFFF00"/>
<path d="M14 4V6H16V8H18V4H16V2H14V4Z" fill="#808000"/>
<path d="M6 6H8V4H6V6Z" fill="#808000"/>
<path d="M8 6V14H12V8H14V6H8Z" fill="#838383"/>
<path d="M20 14H22V6H20V14Z" fill="#838383"/>
<path d="M18 4H20V2H18V4Z" fill="#838383"/>
<path d="M16 2H18V0H16V2Z" fill="#838383"/>
<path d="M4 2H6V0H4V2Z" fill="#838383"/>
<path d="M2 4H4V2H2V4Z" fill="#838383"/>
<path d="M22 16V30H2V32H24V16H22Z" fill="#838383"/>
<path d="M20 28V16H16V18H18V20H16V22H18V24H16V26H18V28H20Z" fill="#808000"/>
<path d="M2 16V28H6V26H4V24H6V22H4V20H6V18H4V16H2Z" fill="#808000"/>
<path d="M16 18V16H12V18H10V20H12V22H10V24H12V26H10V28H14V26H16V24H14V22H16V20H14V18H16Z" fill="#FFFF40"/>
<path d="M18 18H16V20H18V18Z" fill="#FFFF40"/>
<path d="M18 22H16V24H18V22Z" fill="#FFFF40"/>
<path d="M18 26H16V28H18V26Z" fill="#FFFF40"/>
<path d="M8 20V22H10V20H8Z" fill="#FFFF40"/>
<path d="M8 16V18H10V16H8Z" fill="#FFFF40"/>
<path d="M4 18H6V16H4V18Z" fill="#FFFF40"/>
<path d="M4 22H6V20H4V22Z" fill="#FFFF40"/>
<path d="M4 26H6V24H4V26Z" fill="#FFFF40"/>
<path d="M6 26V28H8V26H6Z" fill="#FFFF40"/>
<path d="M6 18V20H8V18H6Z" fill="#FFFF40"/>
<path d="M6 22V24H8V22H6Z" fill="#FFFF40"/>
<path d="M8 24V26H10V24H8Z" fill="#FFFF40"/>
<path d="M6 24V26H8V24H6Z" fill="white"/>
<path d="M12 24H10V26H12V24Z" fill="white"/>
<path d="M10 26H8V28H10V26Z" fill="white"/>
<path d="M10 22H8V24H10V22Z" fill="white"/>
<path d="M10 20V22H12V20H10Z" fill="white"/>
<path d="M10 18H8V20H10V18Z" fill="white"/>
<path d="M6 20V22H8V20H6Z" fill="white"/>
<path d="M6 16V18H8V16H6Z" fill="white"/>
<path d="M10 16V18H12V16H10Z" fill="white"/>
<path d="M14 20H16V18H14V20Z" fill="#808000"/>
<path d="M14 24H16V22H14V24Z" fill="#808000"/>
<path d="M14 26V28H16V26H14Z" fill="#808000"/>
</svg>
