<svg width="28" height="32" viewBox="0 0 28 32" fill="none" xmlns="http://www.w3.org/2000/svg">
<path d="M2 30V32H18V30H2Z" fill="black"/>
<path d="M18 30H22V32H26V30H24V28V26V24V22V20V18V16V14H22V16V18V20V22V24V26V28H20V26V24V22H18V24V28V30Z" fill="black"/>
<path d="M2 20V22H18V20H16H14H6H4H2Z" fill="black"/>
<path d="M4 12V14V16V18V20H6V14H10V18H14V20H16V18V16H14H12V14V12H10H8H6H4Z" fill="black"/>
<path d="M2 22H0V30H2V28V22Z" fill="black"/>
<path d="M2 4H0V20H2V18V16V14V12V10V8V6V4Z" fill="black"/>
<path d="M6 2V0H4V2H6Z" fill="black"/>
<path d="M2 2V4H4V2H2Z" fill="black"/>
<path d="M6 4H4V6H6V4Z" fill="black"/>
<path d="M10 4V2H6V4H8H10Z" fill="black"/>
<path d="M14 6V4H10V6H12H14Z" fill="black"/>
<path d="M10 8V6H8V8H10Z" fill="black"/>
<path d="M18 6H14V8H16H18V6Z" fill="black"/>
<path d="M14 8H12V10H14V8Z" fill="black"/>
<path d="M14 10V12H16V10H14Z" fill="black"/>
<path d="M22 6V4H18V6H20H22Z" fill="black"/>
<path d="M24 6H22V8H24V6Z" fill="black"/>
<path d="M26 10V8H24V10H26Z" fill="black"/>
<path d="M20 14H22V12H20V14Z" fill="black"/>
<path d="M26 30H28V10H26V12V14V16V18V20V22V24V26V28V30Z" fill="black"/>
<path d="M6 28V24H16V26H10H8V28H6Z" fill="black"/>
<path d="M2 30H18V28H16H10V26H8V28H6H4H2V30Z" fill="#838383"/>
<path d="M2 0V2H4V0H2Z" fill="#838383"/>
<path d="M6 4V6H8V4H6Z" fill="#838383"/>
<path d="M10 6V8H12V6H10Z" fill="#838383"/>
<path d="M14 10H16V8H14V10Z" fill="#838383"/>
<path d="M16 10V12H18V10H16Z" fill="#838383"/>
<path d="M20 14V12H18V14H20Z" fill="#838383"/>
<path d="M22 12V14H24V12H22Z" fill="#838383"/>
<path d="M28 8H26V10H28V8Z" fill="#838383"/>
<path d="M26 8V6H24V8H26Z" fill="#838383"/>
<path d="M24 30H26V28H24V30Z" fill="#CCCCCC"/>
<path d="M26 24H24V26H26V24Z" fill="#CCCCCC"/>
<path d="M26 20H24V22H26V20Z" fill="#CCCCCC"/>
<path d="M26 16H24V18H26V16Z" fill="#CCCCCC"/>
<path d="M24 12V14H26V12H24Z" fill="#CCCCCC"/>
<path d="M22 12H24V10H22V12Z" fill="#CCCCCC"/>
<path d="M20 8V10H22V8H20Z" fill="#CCCCCC"/>
<path d="M18 6V8H20V6H18Z" fill="#CCCCCC"/>
<path d="M18 8H16V10H18V8Z" fill="#CCCCCC"/>
<path d="M18 10V12H20V10H18Z" fill="#CCCCCC"/>
<path d="M18 12H16V14H18V12Z" fill="#CCCCCC"/>
<path d="M12 16H14V14H12V16Z" fill="#CCCCCC"/>
<path d="M2 20H4V18H2V20Z" fill="#CCCCCC"/>
<path d="M6 28V24H4V28H6Z" fill="#CCCCCC"/>
<path d="M16 24V26V28H18V24H16Z" fill="#CCCCCC"/>
<path d="M20 28H22V26H20V28Z" fill="#CCCCCC"/>
<path d="M6 2H4V4H6V2Z" fill="#FFFF00"/>
<path d="M4 4H2V6H4V4Z" fill="#FFFF00"/>
<path d="M6 6H4V8H6V6Z" fill="#FFFF00"/>
<path d="M2 10H4V8H2V10Z" fill="#FFFF00"/>
<path d="M4 12H2V14H4V12Z" fill="#FFFF00"/>
<path d="M2 18H4V16H2V18Z" fill="#FFFF00"/>
<path d="M4 12H6V10H4V12Z" fill="#FFFF00"/>
<path d="M8 12H10V10H8V12Z" fill="#FFFF00"/>
<path d="M8 10V8H6V10H8Z" fill="#FFFF00"/>
<path d="M10 6V4H8V6H10Z" fill="#FFFF00"/>
<path d="M14 8V6H12V8H14Z" fill="#FFFF00"/>
<path d="M12 10V8H10V10H12Z" fill="#FFFF00"/>
<path d="M14 10H12V12H14V10Z" fill="#FFFF00"/>
<path d="M16 12H14V14H16V12Z" fill="#FFFF00"/>
<path d="M18 14H16V16H18V14Z" fill="#FFFF00"/>
<path d="M18 18H20V16H18V18Z" fill="#FFFF00"/>
<path d="M20 20H22V18H20V20Z" fill="#FFFF00"/>
<path d="M22 14H20V16H22V14Z" fill="#FFFF00"/>
<path d="M16 20H18V18H16V20Z" fill="#FFFF00"/>
<path d="M18 20V22H20V20H18Z" fill="#FFFF00"/>
<path d="M20 22V24H22V22H20Z" fill="#FFFF00"/>
<path d="M26 26H24V28H26V26Z" fill="#FFFF00"/>
<path d="M26 22H24V24H26V22Z" fill="#FFFF00"/>
<path d="M26 18H24V20H26V18Z" fill="#FFFF00"/>
<path d="M26 14H24V16H26V14Z" fill="#FFFF00"/>
<path d="M26 10H24V12H26V10Z" fill="#FFFF00"/>
<path d="M20 12H22V10H20V12Z" fill="#FFFF00"/>
<path d="M24 10V8H22V10H24Z" fill="#FFFF00"/>
<path d="M22 8V6H20V8H22Z" fill="#FFFF00"/>
<path fill-rule="evenodd" clip-rule="evenodd" d="M2 14V16H4V14H2ZM4 12H2V10H4V12ZM4 8V10H6V12H8V10H10V12H12V14H14V16H16V18H18V20H20V22H22V20H20V18H22V16H20V14H18V16H16V14H14V12H12V10H10V8H8V6H6V8H4ZM4 8V6H2V8H4ZM6 8H8V10H6V8ZM18 16V18H20V16H18ZM20 24H22V26H20V24ZM2 28V22H18V24H16H6H4V28H2ZM16 26V28H10V26H16ZM14 18V20H6V14H10V18H14Z" fill="white"/>
<path d="M18 10H20V8H18V10Z" fill="#FFFF00"/>
</svg>
