<svg width="32" height="30" viewBox="0 0 32 30" fill="none" xmlns="http://www.w3.org/2000/svg">
<path d="M8 12V14H10V12H8Z" fill="#00FF00"/>
<path d="M10 16H8V18H10V16Z" fill="#800000"/>
<path d="M8 18H6V22H8V24H12V26H16V28H20V26H24V24H26V20H24V22H20V24H16V22H12V20H8V18Z" fill="#FF0000"/>
<path d="M28 16H30V6H26V8H28V16Z" fill="#FF0000"/>
<path d="M22 6H26V4H22V6Z" fill="#FF0000"/>
<path d="M18 4H22V2H18V4Z" fill="#FF0000"/>
<path d="M18 4H16V8H22V6H18V4Z" fill="#800000"/>
<path d="M12 20H16V22H20V20H18V18H14V16V14H18V12H12V20Z" fill="#CCCCCC"/>
<path d="M24 18H26V12H20V14H24V16V18Z" fill="#CCCCCC"/>
<path d="M26 10H12V12H18H20H26V10Z" fill="white"/>
<path d="M18 12V14H14V16H18V18V20H20V18V16H24V14H20V12H18Z" fill="#838383"/>
<path d="M14 18H18V16H14V18Z" fill="white"/>
<path d="M20 18H24V16H20V18Z" fill="white"/>
<path d="M20 20H24V18H20V20Z" fill="#CCCCCC"/>
<path d="M0 8H2V6H0V8Z" fill="#838383"/>
<path d="M2 8V10H4V8H2Z" fill="#838383"/>
<path fill-rule="evenodd" clip-rule="evenodd" d="M0 4V6H2V8H4V10H6V12V16H4V24H8V26H12V28H16V30H20V28H24V26H28V18H30V16H32V6H30V4H26V2H22V0H18V2H14V8H10V10H6V8H4V6H2V4H0ZM18 4V2H22V4H18ZM22 6H18V4H16V8H22V6ZM26 6V4H22V6H26ZM26 6H30V16H28V8H26V6ZM24 20H26V24H24V26H20V28H16V26H12V24H8V22H6V18H8V20H12V22H16V24H20V22H24V20ZM24 20H20V22H16V20H12V12V10H26V12V18H24V20ZM8 18V16H10V18H8ZM8 14V12H10V14H8Z" fill="black"/>
<path d="M4 10V12H6V10H4Z" fill="#838383"/>
</svg>
