<svg width="32" height="32" viewBox="0 0 32 32" fill="none" xmlns="http://www.w3.org/2000/svg">
<path fill-rule="evenodd" clip-rule="evenodd" d="M0 12H4H6H22V20V22V30H2H0V12ZM20 14H2V16V28H20V16V14Z" fill="#0000AA"/>
<path d="M20 14H2V16H20V14Z" fill="#0000FF"/>
<path d="M4 18V20H6V18H4Z" fill="#0092AA"/>
<path d="M8 18V20H10V18H8Z" fill="#0092AA"/>
<path d="M12 18V20H14V18H12Z" fill="#0092AA"/>
<path d="M18 20V18H16V20H18Z" fill="#0092AA"/>
<path d="M18 24V22H16V24H18Z" fill="#0092AA"/>
<path d="M12 22V24H14V22H12Z" fill="#0092AA"/>
<path d="M8 22V24H10V22H8Z" fill="#0092AA"/>
<path d="M4 22V24H6V22H4Z" fill="#0092AA"/>
<path d="M6 18V20H8V18H6Z" fill="#C1C1C1"/>
<path d="M10 18V20H12V18H10Z" fill="#C1C1C1"/>
<path d="M14 18V20H16V18H14Z" fill="#C1C1C1"/>
<path d="M14 22V24H16V22H14Z" fill="#C1C1C1"/>
<path d="M10 22V24H12V22H10Z" fill="#C1C1C1"/>
<path d="M6 22V24H8V22H6Z" fill="#C1C1C1"/>
<path d="M22 30H2V32H24V24H28V18H32V2H30V16H26V22H22V30Z" fill="#838383"/>
<path d="M30 16V2V0H8V6H10V4V2H28V4V14H26V6H10H8H4V12H6V10V8H24V10V20H22V22H26V16H30Z" fill="#0000AA"/>
<path d="M24 8H6V10H24V8Z" fill="#808000"/>
<path d="M28 2H10V4H28V2Z" fill="#009200"/>
<path fill-rule="evenodd" clip-rule="evenodd" d="M2 28H20V16H2V28ZM4 20V18H6H8H10H12H14H16H18V20H16H14H12H10H8H6H4ZM18 22V24H16H14H12H10H8H6H4V22H6H8H10H12H14H16H18Z" fill="white"/>
<path d="M22 12V20H24V10H6V12H22Z" fill="white"/>
<path d="M26 6V14H28V4H10V6H26Z" fill="white"/>
</svg>
