<svg width="32" height="12" viewBox="0 0 32 12" fill="none" xmlns="http://www.w3.org/2000/svg">
<path d="M2 2V10H4V8V4H8H10V2H2Z" fill="white"/>
<path d="M12 2V10H14V8V4H18H20V2H12Z" fill="white"/>
<path d="M30 2H22V10H24V8V4H28H30V2Z" fill="white"/>
<path d="M24 10H30V4H28V8H24V10Z" fill="#838383"/>
<path d="M14 10H20V4H18V8H14V10Z" fill="#838383"/>
<path d="M4 10H10V4H8V8H4V10Z" fill="#838383"/>
<path d="M4 4V8H8V4H4Z" fill="#C1C1C1"/>
<path d="M18 4H14V8H18V4Z" fill="#C1C1C1"/>
<path fill-rule="evenodd" clip-rule="evenodd" d="M0 0V12H32V0H0ZM2 10V2H10V4V10H4H2ZM12 2V10H14H20V4V2H12ZM22 2H30V4V10H24H22V2Z" fill="#0000FF"/>
<path d="M24 4V8H28V4H24Z" fill="#C1C1C1"/>
</svg>
